# xmcd
#
# Track frame offsets: 
#        150
#        11678
#        23355
#        36094
#        46273
#        57175
#        71200
#        82557
#        99784
#        112887
#        124265
#        147055
#
# Disc length: 2165 seconds
#
# Revision: 1
# Processed by: cddbd v1.5.2PL0 Copyright (c) Steve Scherf et al.
# Submitted via: ExactAudioCopy v1.1
#
DISCID=8708730c
DTITLE=Chris Ruest - No 2Nd Chances
DYEAR=2011
DGENRE=Chicago Blues
TTITLE0=You Ain't Right
TTITLE1=You Suck
TTITLE2=In This Heart Of Mine
TTITLE3=No Room For 2Nd Chances
TTITLE4=No Use For O'well
TTITLE5=Unclaimed Freight
TTITLE6=I Wanna Rock Ya
TTITLE7=Late Night Shuffle
TTITLE8=Hit You With My Guitar
TTITLE9=Get What You Want
TTITLE10=Poor Little Greta
TTITLE11=What I Ask For This Year
EXTD=
EXTT0=
EXTT1=
EXTT2=
EXTT3=
EXTT4=
EXTT5=
EXTT6=
EXTT7=
EXTT8=
EXTT9=
EXTT10=
EXTT11=
PLAYORDER=
